# xmcd
#
# Track frame offsets: 
#        150
#        11520
#        23404
#        34466
#        46141
#        54012
#        61619
#        74715
#        85568
#        98232
#        110757
#        120384
#        131321
#        142076
#        154100
#        164841
#        176196
#        186073
#        197038
#        207222
#        214286
#        224651
#        234403
#        243264
#        253964
#        263284
#
# Disc length: 3524 seconds
#
# Revision: 2
# Processed by: cddbd v1.5.2PL0 Copyright (c) Steve Scherf et al.
# Submitted via: ExactAudioCopy v1.0b3
#
DISCID=730dc21a
DTITLE=Pee Wee King - Pee Wee King's Country Hoedown [disc 2]
DYEAR=1999
DGENRE=Western Swing
TTITLE0=Fool's Gold
TTITLE1=Silver and Gold
TTITLE2=Sweetest Little Girl
TTITLE3=Darling Don't Cry
TTITLE4=Flower of Texas
TTITLE5=I Wanna Say Hello
TTITLE6=Let Me Hold You When You're Blue
TTITLE7=Where Oh Where Has My Little Love Gone
TTITLE8=I Need a Lot of Lovin'
TTITLE9=Where Were You Last Night
TTITLE10=I'm Just a Gad-About
TTITLE11=Song of the Early Settlers
TTITLE12=Take These Shackles from My Heart
TTITLE13=The Calendar Song
TTITLE14=Don't Apologize to Me
TTITLE15=Charleston Alley
TTITLE16=Opportunity
TTITLE17=Rich in Love
TTITLE18=I Can't Feel Those Kisses in Your Letters
TTITLE19=Mohegas
TTITLE20=Tadpole
TTITLE21=Your Kisses Aren't Kisses Anymore
TTITLE22=Tennessee Tango
TTITLE23=Darling, Stop Playing with My Heart
TTITLE24=Tears, Tears, Tears
TTITLE25="There's that man with the stopwatch..."
EXTD=Recorded for/by Standard Radio Transcription Services, 1952.\nPee
EXTD=Wee King [Julius Frank Anthony Kuczynski] (1914-02-18/2000-03-07
EXTD=): accordion, bandleader\n& The Golden West Cowboys\nHenry Ellis 
EXTD="Redd" Stewart (1923-05-27/2003-08-03): vocals\n2CD: Soundies/Blo
EXTD=odshot Revival BS-804 (1999-11), UPC 744302080420.
EXTT0=
EXTT1=
EXTT2=
EXTT3=
EXTT4=
EXTT5=
EXTT6=
EXTT7=
EXTT8=
EXTT9=
EXTT10=
EXTT11=
EXTT12=
EXTT13=
EXTT14=
EXTT15=
EXTT16=
EXTT17=
EXTT18=
EXTT19=
EXTT20=
EXTT21=
EXTT22=
EXTT23=
EXTT24=
EXTT25=
PLAYORDER=
